<svg width="46" height="55" viewBox="0 0 46 55" fill="none" xmlns="http://www.w3.org/2000/svg">
<path d="M0.877734 16.5617C1.37631 14.9078 2.62274 14.1168 3.86918 13.3977C4.49239 13.0381 4.55471 12.8943 4.18078 12.1752C3.12132 10.3774 3.12132 10.3774 4.804 9.1549C8.66795 6.27846 12.5319 3.3301 16.3958 0.453661C17.1437 -0.121628 17.8292 -0.337361 18.4525 0.957038C19.6989 3.47393 21.1323 5.77508 22.441 8.22006C22.6903 8.72343 22.9396 8.65152 23.3759 8.57961C26.6166 8.00432 29.9196 7.42904 33.2227 6.92566C34.0952 6.78184 34.9054 6.70992 34.8431 8.29197C34.8431 9.37063 35.3416 10.5212 35.2793 11.6718C35.217 13.3257 35.8402 13.4696 36.962 13.3977C37.8557 13.2658 38.7626 13.3145 39.6418 13.5415C41.9477 14.2606 43.0695 16.0584 42.8202 18.7191C42.7575 19.1042 42.7757 19.5011 42.8733 19.8764C42.9709 20.2518 43.1451 20.5947 43.3811 20.8764C44.5029 22.3146 44.2536 24.2562 44.1913 26.054C44.129 27.9956 43.942 30.0091 43.8797 31.9507C43.8797 32.2384 43.6927 32.6698 44.0667 32.8136C45.1885 33.317 45.0638 34.3957 45.0015 35.4744C44.9392 37.0564 44.8145 38.5665 44.8145 40.1486C44.8145 41.3711 44.7522 42.5216 43.5681 43.025C43.0695 43.2407 43.3811 43.7441 43.3188 44.1756C43.0072 46.4048 43.3188 48.706 42.7579 50.8633C42.5467 51.6867 42.1348 52.4228 41.5712 52.9837C41.0077 53.5447 40.3164 53.907 39.5795 54.0274C36.2765 54.0993 32.9734 54.1712 29.6704 54.3151C22.6903 54.5308 15.7103 54.6746 8.79259 54.8184C7.42151 54.8184 6.05044 54.7465 4.67936 54.6746C1.99952 54.6746 -0.119413 51.5105 0.00523012 48.4183C0.129874 44.8228 0.254517 41.2272 0.192195 37.7036C0.0675518 31.735 0.316839 25.7664 0.316839 19.7258C0.149545 18.6272 0.350022 17.4963 0.877734 16.5617ZM39.6418 34.0361C38.4795 33.7014 37.2693 33.6524 36.0895 33.8923C35.5941 33.6668 35.0516 33.6167 34.5315 33.7485C33.854 33.7787 33.2076 34.0838 32.706 34.61C32.2044 35.1362 31.8798 35.8497 31.7893 36.6249C31.6134 37.0516 31.5435 37.5262 31.5876 37.996C31.6316 38.4658 31.7877 38.9122 32.0386 39.2856C32.2487 39.958 32.6277 40.5429 33.1272 40.9656C33.6268 41.3883 34.2241 41.6296 34.8431 41.6587C37.5229 41.7306 40.1404 41.6587 42.8202 41.6587C43.4435 41.6587 43.8174 41.443 43.6304 40.652C43.9513 38.5643 44.0559 36.44 43.942 34.3238C43.3188 33.6047 40.7636 33.3889 39.6418 34.0361ZM19.3187 20.2508C15.5171 19.9631 11.7778 19.8912 8.0385 20.035C7.22831 19.7474 6.41813 19.3878 5.60795 19.1002C4.11223 18.5249 3.55133 17.3024 4.04991 15.7204C4.54848 15.3608 5.10938 15.0732 5.60795 14.7136C5.50738 14.5656 5.36884 14.4581 5.21214 14.4065C5.05544 14.3548 4.88859 14.3616 4.73545 14.426C3.75516 14.6394 2.86787 15.234 2.22146 16.1107C1.57505 16.9874 1.20857 18.0933 1.18311 19.244C1.12079 20.5384 1.24543 21.9047 1.18311 23.1991C1.12079 30.9655 0.933823 38.7319 0.933823 46.4983C0.933823 47.9365 0.559893 49.5186 1.55704 50.813C1.58048 51.0923 1.66786 51.3593 1.81023 51.5868C1.9526 51.8142 2.14483 51.9939 2.36722 52.1074C3.48901 53.7613 5.10938 53.4737 6.6051 53.4018C13.9591 53.258 21.313 53.0422 28.667 52.8984L38.6385 52.6827C40.7574 52.6108 41.8169 51.3164 41.8792 48.7995C41.9415 47.1455 41.8792 45.4916 42.0661 43.9095C42.1908 42.7589 41.8792 42.8309 41.069 42.8309C37.8283 42.687 34.4629 43.6938 31.4715 41.3207C31.4124 41.1385 31.3282 40.9685 31.2222 40.8173C30.7096 40.0513 30.3934 39.1349 30.3094 38.1721C30.2253 37.2092 30.3769 36.2384 30.7467 35.3699C31.1166 34.5013 31.69 33.7698 32.402 33.2582C33.1139 32.7466 33.9358 32.4755 34.7745 32.4757C36.2702 32.4757 37.8283 32.4038 39.324 32.5476C40.3835 32.6195 41.3183 32.6914 41.0067 30.8936C40.9444 30.606 41.1936 30.3183 41.3183 29.9588C42.0038 30.3183 41.6299 31.0374 41.7545 31.6127C41.8169 31.9004 41.5676 32.4757 42.1285 32.4757C42.5024 32.4757 42.5024 32.1161 42.5647 31.7566C42.6894 29.0958 42.8763 26.4351 43.001 23.7744C43.0356 23.2737 42.9561 22.7713 42.7702 22.3171C42.5843 21.8629 42.2986 21.4728 41.9415 21.1856C41.6299 21.0418 41.3806 20.8261 41.069 20.6822C40.6951 20.1789 40.2588 20.3227 39.7602 20.3227C37.392 20.2508 34.9615 20.2508 32.5932 20.1789C32.2193 20.1789 31.7831 20.035 31.4091 20.4665C30.8683 20.4546 30.3272 20.4786 29.7888 20.5384C26.3112 20.1168 22.8097 20.0206 19.3187 20.2508ZM18.4525 18.7191V17.8561C18.2032 15.6269 17.8916 13.4696 17.6423 11.2403C17.5799 10.5212 17.393 9.65828 18.2655 9.37063C19.5742 8.93917 19.5742 8.93917 18.7641 7.57286C18.5778 7.32684 18.4109 7.06211 18.2655 6.78184C17.7669 5.05597 16.2089 5.84699 15.3364 5.12788C15.274 5.05597 15.0871 5.19979 15.0248 5.2717L8.66795 10.0178C8.5433 10.0897 8.29402 10.1617 8.29402 10.5212C8.23169 12.2471 7.79544 13.9729 9.16652 15.4112C9.78974 16.0584 10.1013 17.137 10.5999 18.0719C10.7308 18.3749 10.9372 18.6258 11.1926 18.7924C11.4481 18.959 11.7408 19.0336 12.0333 19.0067H17.8292C18.0162 18.8845 18.3278 19.0283 18.4525 18.7191ZM33.2227 18.791V18.4314C32.9734 16.4898 32.7864 14.4763 32.5372 12.5347C32.5372 12.319 32.4125 11.9594 32.1632 12.0313C31.353 12.2471 31.2284 11.3841 30.7922 10.9527C30.6845 10.8132 30.5481 10.7072 30.3957 10.6443C30.2432 10.5815 30.0795 10.5639 29.9196 10.5931C28.6109 10.8089 27.2398 10.8808 25.9311 11.2403C24.2484 11.6718 22.1918 11.0965 21.2569 13.6134C21.1323 13.9729 20.8207 14.2606 20.883 14.6921C21.0076 15.9145 21.3193 17.137 21.3816 18.3595C21.4439 18.9348 21.6932 18.791 21.8801 18.791C25.4325 18.8629 28.9225 18.8629 32.4748 18.9348C32.7864 19.1002 33.0295 19.1002 33.2227 18.8126V18.791ZM9.85206 18.6472C8.97956 17.0651 8.10705 15.555 7.17223 13.9729C6.98526 13.6134 7.17223 9.73019 7.42151 9.44254C7.48383 9.37063 7.6708 9.29872 7.73312 9.22681C9.85206 7.64477 11.9087 6.06272 14.0276 4.55259C14.7132 4.04921 15.461 2.97055 16.3335 4.33686C16.454 4.42209 16.5902 4.47306 16.7311 4.48556C16.872 4.49806 17.0134 4.47174 17.1437 4.40877C18.0162 4.04921 18.4525 4.69641 18.8264 5.41552C19.3873 6.42228 19.8859 7.42903 20.4467 8.43579C20.5714 8.65152 20.7584 9.08299 21.1323 8.86726C21.5062 8.65152 21.1323 8.29197 21.0076 8.07623C19.9482 6.13464 18.7641 4.33686 17.8916 2.32335C17.3307 1.10086 16.8321 1.46042 16.2089 1.89188C12.4696 4.69641 8.73027 7.50095 4.99097 10.2336C4.55471 10.5212 4.55471 10.8089 4.804 11.1684C6.11276 13.4696 7.48383 15.8426 8.79259 18.1438C9.1042 18.5968 9.34725 18.9564 9.85206 18.6687V18.6472ZM34.9677 19.0786L33.8459 9.1549C33.7836 8.5077 33.6589 8.00432 32.8488 8.22006C31.353 8.57961 29.795 8.65152 28.237 8.93917C25.3078 9.37063 22.3787 9.87401 19.5119 10.3774C19.2003 10.4493 18.7017 10.3774 18.8264 11.0965C19.138 13.5415 19.4496 15.9865 19.7612 18.3595C19.8235 18.6472 19.9482 18.6472 20.1975 18.7191C20.6337 18.7191 20.3844 18.4314 20.3844 18.2876C20.2598 17.0651 20.0728 15.8426 19.9482 14.6201C19.8859 14.0449 21.4439 10.9527 21.9425 10.7369C22.0671 10.665 22.1918 10.7369 22.3164 10.7369L29.608 9.44254C30.6052 9.29872 31.4777 9.22681 31.9763 10.5212C32.0136 10.6282 32.0728 10.7233 32.1487 10.7984C32.2247 10.8735 32.3151 10.9264 32.4125 10.9527C33.6589 10.8808 33.659 11.9594 33.7213 12.8943C33.9082 14.6201 34.0952 16.346 34.3445 18.0719C34.3445 18.5968 34.4068 19.1002 34.9677 19.1002V19.0786ZM40.0781 16.6337C39.0756 16.383 38.0458 16.3103 37.0243 16.4179C36.5257 16.4179 35.7779 16.0584 35.9025 17.137C35.9649 17.9281 35.7156 19.1505 37.0243 19.0786C38.0215 19.0786 39.0186 19.1505 40.0158 19.0786C40.5143 19.0067 41.2622 19.582 41.4492 18.9348C41.6361 18.2876 41.0752 17.7123 40.639 17.2809C40.4375 17.0904 40.2499 16.8811 40.0781 16.6552V16.6337ZM7.42151 18.791C7.39507 18.3608 7.29303 17.9413 7.12161 17.558C6.95018 17.1748 6.71295 16.8358 6.42437 16.5617C6.33684 16.4486 6.22857 16.3594 6.10743 16.3006C5.98628 16.2418 5.85531 16.2148 5.72401 16.2217C5.59272 16.2286 5.4644 16.2691 5.34839 16.3404C5.23237 16.4116 5.13156 16.5118 5.05329 16.6337C4.55471 17.2089 5.24025 17.4247 5.42722 17.7123C5.92579 18.3811 6.7983 18.0934 7.42151 18.8126V18.791ZM38.0838 15.1235V14.764C37.2736 14.5482 36.4634 14.4044 35.7156 15.1235H38.0838Z" fill="black"/>
<path d="M29.9809 20.5447C30.5218 20.5566 31.0628 20.5326 31.6012 20.4728C34.7907 20.8322 37.9996 20.9043 41.1988 20.6885C41.5104 20.8323 41.7597 21.0481 42.0713 21.1919C41.9467 21.6953 41.822 22.1267 41.6974 22.6301C41.3992 22.4106 41.0866 22.2183 40.7625 22.0548C40.5756 21.911 40.3886 21.9829 40.264 22.2706C40.1393 22.5582 40.2016 22.702 40.3886 22.7739C41.1365 22.9897 41.1365 24.1402 41.8843 24.356V25.7223C41.5574 26.1594 41.3723 26.7142 41.361 27.2914C41.3496 27.8687 41.5126 28.4326 41.822 28.8864C41.7597 29.3178 41.635 29.6774 41.5727 30.1089C41.4481 30.3965 41.1988 30.7561 41.2611 31.0437C41.5104 32.7696 40.6379 32.6977 39.5784 32.6977C38.0827 32.6257 36.5247 32.6258 35.0289 32.6258C31.2896 32.6977 29.1707 37.6595 31.4766 40.9674C31.6012 41.1113 31.6012 41.327 31.7259 41.4708C31.6012 42.0461 31.9129 42.3337 32.2245 42.6933C32.6528 43.2179 33.1772 43.6257 33.7593 43.8869C34.3415 44.1482 34.9669 44.2563 35.5898 44.2034C37.2747 44.1676 38.96 44.2396 40.6379 44.4192C40.8872 45.2821 40.264 46.3608 41.0742 47.0799C40.9045 47.4313 40.8185 47.8283 40.8249 48.2304C40.1124 48.9304 39.5926 49.8551 39.3291 50.8912C38.9545 50.8998 38.5887 51.024 38.2697 51.2507C37.2725 50.8912 36.2754 50.6035 35.3405 51.4664C34.9666 51.3945 34.655 51.2507 34.2811 51.1788C33.3463 50.8912 32.4114 50.7473 31.6012 51.4664H30.4795C29.4823 51.035 28.4852 50.4597 27.6127 51.6822C27.2387 51.6103 26.9271 51.4664 26.5532 51.3945C25.556 50.8912 24.6212 50.7473 23.6864 51.6103H22.5023C21.6298 50.5316 20.695 51.1788 19.7601 51.5384C19.3808 51.7182 18.9553 51.7182 18.576 51.5384C17.6412 51.1069 16.7064 50.7473 15.8962 51.8979C15.4599 51.826 15.0237 51.826 14.5874 51.7541C14.3952 51.5485 14.1669 51.3933 13.9179 51.299C13.6689 51.2047 13.4052 51.1735 13.1448 51.2077C12.8845 51.2418 12.6335 51.3404 12.4093 51.4968C12.185 51.6532 11.9926 51.8636 11.8453 52.1136C11.4713 52.0417 11.1597 51.8979 10.7858 51.826C10.373 51.4367 9.84761 51.2424 9.31558 51.2825C8.78356 51.3225 8.28448 51.5938 7.919 52.0417C7.5582 51.9882 7.20316 51.8918 6.85953 51.7541C6.23632 51.1069 5.42614 51.3945 4.7406 51.2507C4.24202 51.1788 4.05506 51.5384 4.55363 52.0417C3.86809 52.4013 3.12023 51.7541 2.43469 52.2575C2.21231 52.144 2.02007 51.9643 1.8777 51.7369C1.73533 51.5094 1.64795 51.2423 1.62451 50.9631C1.74916 50.6035 1.68683 50.244 1.99844 49.9563C2.06179 50.0927 2.14628 50.2146 2.24773 50.3159C2.43469 50.6035 2.55934 51.035 2.99559 50.8912C3.0904 50.8463 3.16791 50.7632 3.21374 50.6575C3.25957 50.5517 3.27064 50.4303 3.24488 50.3159C3.12023 49.8125 2.93327 49.3091 2.43469 49.2372C2.06076 49.1653 2.06076 49.5968 2.06076 49.9563C1.74916 49.7406 1.81148 49.381 1.81148 49.0215C1.81148 47.0799 1.74916 45.2102 1.74916 43.2686C1.81148 35.5741 1.93612 27.8796 1.99844 20.1851C1.9583 19.3173 2.1371 18.4546 2.51318 17.7015C2.88926 16.9485 3.44649 16.3375 4.11738 15.9424C3.61881 17.5244 4.1797 18.7469 5.67542 19.3222C6.4856 19.6098 7.29579 19.8975 8.10597 20.257C8.41221 20.5152 8.78681 20.6424 9.16544 20.6166L18.8253 20.8323C19.0746 20.8323 19.3239 20.7604 19.3862 20.4009C19.7601 20.8323 20.1964 20.7604 20.695 20.7604C23.4371 20.8323 26.1793 20.8323 28.9214 20.9042C29.233 20.7604 29.607 20.8323 29.9809 20.5447ZM8.41758 28.1673C8.19129 28.5999 8.08273 29.1009 8.10597 29.6055C8.10597 31.4033 8.04365 33.201 8.04365 34.9269C8.04365 36.3651 8.60454 37.0123 9.9133 37.0842C11.2221 37.1561 12.5931 37.1561 13.9019 37.1561C15.2106 37.1561 15.7092 36.5089 15.7715 35.0707C15.8339 33.2729 15.8339 31.4033 15.8339 29.6055C15.8339 28.0234 15.2106 27.2324 13.8396 27.0886C12.4685 26.9448 11.2221 27.0167 9.97562 27.0167C9.64137 26.9764 9.30517 27.0684 9.02211 27.2774C8.73905 27.4864 8.5259 27.8002 8.41758 28.1673ZM8.66686 44.2753C8.99652 44.4568 9.36275 44.5314 9.72633 44.4911C11.1597 44.4911 12.5931 44.563 13.9642 44.563C15.2106 44.563 15.5846 44.1315 15.6469 42.6933C15.7092 41.2551 15.1483 40.6798 14.0265 40.6798C12.4062 40.6798 10.7858 40.7517 9.16544 40.7517C8.29293 40.7517 8.04365 41.4708 7.85668 42.2618C7.79154 42.4551 7.76091 42.6615 7.76663 42.8687C7.77236 43.076 7.81431 43.2797 7.88998 43.4678C7.96565 43.6558 8.07347 43.8243 8.20697 43.9631C8.34047 44.1018 8.4969 44.2081 8.66686 44.2753ZM11.0351 21.6018H10.9104C10.2249 21.6737 9.47705 21.3861 8.85383 21.7456C8.66686 21.8894 8.72919 22.249 8.85383 22.3928C9.47705 22.8962 10.2249 22.5366 10.8481 22.6085C11.0351 22.6085 11.2844 22.5366 11.2844 22.1771C11.2844 21.8175 11.2158 21.6953 11.0351 21.6018ZM27.1141 22.3928C27.1182 22.269 27.0969 22.1457 27.0518 22.0333C26.8648 21.6018 24.8082 21.5299 24.6212 21.8894C24.5589 21.9613 24.4966 22.1771 24.5589 22.249C24.6756 22.4185 24.83 22.5481 25.0057 22.6241C25.1813 22.7001 25.3715 22.7196 25.556 22.6804C26.0864 22.8049 26.6377 22.7107 27.1141 22.4144V22.3928ZM31.1588 22.3209C30.4109 21.3861 29.6007 21.8894 28.8529 21.7456C28.6036 21.6737 28.4789 21.8894 28.4166 22.1771C28.3543 22.4647 28.6036 22.6085 28.7905 22.6804C29.5446 22.8458 30.3548 23.04 31.1588 22.3209ZM16.8871 22.5366C17.635 22.4647 18.4451 22.8243 19.193 22.3209C19.2553 22.249 19.3176 21.9613 19.2553 21.9613C18.6321 21.3141 17.8842 21.8175 17.261 21.6018C17.1332 21.5904 17.0049 21.6151 16.8871 21.6737C16.8075 21.6989 16.7384 21.7564 16.6926 21.8357C16.6468 21.915 16.6274 22.0107 16.6378 22.1052C16.644 22.3209 16.644 22.5582 16.8933 22.5582L16.8871 22.5366ZM15.2044 22.3928C15.2667 22.1052 15.2044 21.7456 15.0174 21.7456C14.2987 21.5658 13.5549 21.5658 12.8362 21.7456C12.6492 21.8175 12.6492 22.0332 12.6492 22.249C12.6492 22.4647 12.7739 22.6804 13.0231 22.6804C13.3999 22.6682 13.7751 22.6201 14.1449 22.5366C14.5251 22.4863 14.899 22.702 15.2106 22.4144L15.2044 22.3928ZM34.9604 22.249C34.2748 21.5299 33.527 21.8894 32.7791 21.8175C32.6814 21.8088 32.5841 21.8401 32.5044 21.9058C32.4246 21.9716 32.3675 22.0676 32.3429 22.1771C32.2806 22.5366 32.5922 22.6804 32.7791 22.7524C33.5332 22.8458 34.3434 23.04 34.9666 22.2706L34.9604 22.249ZM20.6887 22.6085C21.3119 22.6085 21.8105 22.6804 22.3714 22.6804C22.683 22.6804 23.1816 22.6085 23.1816 22.249C23.1816 21.6018 22.6207 21.8175 22.3091 21.8175C21.8542 21.7455 21.3929 21.7455 20.938 21.8175C20.8309 21.8095 20.7253 21.8502 20.6438 21.9308C20.5623 22.0114 20.5113 22.1256 20.5018 22.249C20.5813 22.3649 20.6464 22.4932 20.695 22.6301L20.6887 22.6085ZM5.29526 22.1052C5.9808 22.3928 6.66634 22.6805 7.35188 22.1052C7.47652 22.0333 7.28955 21.458 7.04027 21.458C6.35473 21.5299 5.60687 20.7389 4.98365 21.5299C4.80292 21.7672 4.92756 22.1267 5.30149 22.1267L5.29526 22.1052ZM38.5127 22.7524C38.6997 22.4647 38.762 22.1771 38.5127 22.0333C37.8456 21.7942 37.1346 21.7693 36.4561 21.9613C36.3929 21.9732 36.3349 22.0085 36.2908 22.062C36.2467 22.1156 36.219 22.1842 36.2119 22.2576C36.2049 22.331 36.2188 22.405 36.2517 22.4684C36.2845 22.5318 36.3344 22.581 36.3938 22.6085C37.0833 22.8413 37.8086 22.8977 38.519 22.7739L38.5127 22.7524ZM3.79954 20.7389C3.55025 20.4512 3.36329 20.0917 3.05168 19.7321C3.02048 19.6861 2.97949 19.6503 2.93271 19.628C2.88593 19.6058 2.83495 19.5979 2.78474 19.6051C2.73453 19.6124 2.6868 19.6345 2.64621 19.6693C2.60562 19.7042 2.57354 19.7506 2.55311 19.804C2.30382 20.3074 2.67775 20.595 2.92704 20.8827C3.17632 21.1703 3.43184 21.0481 3.80577 20.7604L3.79954 20.7389Z" fill="#FFB900"/>
<path d="M18.4513 18.7301C18.2643 19.0178 18.015 18.8739 17.7657 18.8739C15.8338 18.8739 13.9018 18.802 11.9698 18.8739C11.6773 18.9009 11.3845 18.8262 11.1291 18.6596C10.8737 18.493 10.6673 18.2421 10.5364 17.9391C10.1002 17.0762 9.78854 15.9975 9.10301 15.2784C7.73193 13.8402 8.16818 12.1143 8.2305 10.3884C8.2305 10.0289 8.47979 10.0289 8.60443 9.88505L14.955 5.16049C15.0797 5.08858 15.2043 4.94476 15.2666 5.01667C16.1391 5.73578 17.6972 5.01667 18.1957 6.67062C18.304 6.977 18.4751 7.24846 18.6943 7.46165C19.5668 8.82796 19.5668 8.82796 18.1957 9.25942C17.3232 9.54707 17.5102 10.41 17.5725 11.1291C17.8218 13.3584 18.1334 15.5157 18.3827 17.7449C18.4613 18.065 18.4846 18.3997 18.4513 18.7301Z" fill="#ACDD5E"/>
<path d="M33.2228 18.8135C33.0064 18.9925 32.7389 19.0697 32.4749 19.0292C28.9226 18.9573 25.4326 18.9573 21.8802 18.8854C21.6933 18.8854 21.3817 19.0292 21.3817 18.454C21.3193 17.2315 21.0077 16.009 20.8831 14.7865C20.8208 14.4269 21.1324 14.0674 21.257 13.7078C22.1918 11.1909 24.3108 11.7662 25.9311 11.3348C27.2399 10.9752 28.611 10.9033 29.9197 10.6876C30.0796 10.6583 30.2433 10.6759 30.3958 10.7388C30.5482 10.8016 30.6846 10.9076 30.7922 11.0471C31.2285 11.4067 31.3531 12.2696 32.1633 12.1258C32.3503 12.0539 32.4749 12.4134 32.5372 12.6292C32.7865 14.5708 32.9735 16.5843 33.2228 18.5259C33.2851 18.5978 33.2228 18.72 33.2228 18.8135Z" fill="#ACDD5E"/>
<path d="M18.5142 51.5367C18.8936 51.7165 19.319 51.7165 19.6983 51.5367C20.5708 52.4715 21.5057 52.3996 22.4405 51.6086H23.6246C24.6218 52.2558 25.6189 52.3996 26.4914 51.3928C26.8653 51.4647 27.1769 51.6086 27.5509 51.6805C28.548 52.04 29.4829 52.3277 30.4177 51.4647H31.5395C31.9302 51.8301 32.4294 52.0045 32.9302 51.9508C33.4309 51.897 33.8936 51.6193 34.2193 51.1771C34.5932 51.249 34.9048 51.3928 35.2788 51.4647C36.2759 51.8243 37.2731 52.4715 38.2079 51.249C38.5141 50.9908 38.8887 50.8637 39.2674 50.8895C40.4515 50.6737 41.0124 49.667 40.7631 48.2287C40.7188 47.8228 40.8078 47.4124 41.0124 47.0782C41.3869 46.392 41.5615 45.5858 41.5109 44.777C41.4486 43.8422 41.137 43.6264 40.5761 44.4894C38.8982 44.3098 37.2129 44.2378 35.5281 44.2736C34.2193 44.2017 33.0352 43.9141 32.1627 42.7635C31.9134 42.4039 31.5395 42.0444 31.6641 41.541C34.6556 43.9141 38.0209 42.9073 41.2617 43.0511C42.0095 43.1231 42.3834 42.9792 42.2588 44.1298C42.1019 45.7531 42.0394 47.3868 42.0718 49.0198C42.0095 51.5367 40.95 52.8311 38.8311 52.903C35.5281 53.0468 32.1627 53.0468 28.8596 53.1187C21.5057 53.2625 14.1517 53.4783 6.79775 53.6221C5.30203 53.6221 3.68167 53.9816 2.55988 52.3277C3.24541 51.8243 3.99327 52.3996 4.67881 52.1119C5.489 52.1119 6.29918 53.1906 7.04704 51.8962C7.40784 51.9497 7.76288 52.0461 8.10651 52.1839C9.10365 52.4715 10.0385 52.903 10.9733 51.9681C11.3472 52.04 11.6588 52.1839 12.0328 52.2558C12.9676 52.3277 13.9024 52.8311 14.7749 51.8962C15.2112 51.9681 15.6474 51.9681 16.0837 52.04C16.7692 52.1119 17.7664 52.6872 18.5142 51.5367Z" fill="#E29D03"/>
<path d="M32.0387 39.312C31.7878 38.9386 31.6317 38.4923 31.5876 38.0226C31.5436 37.553 31.6135 37.0785 31.7894 36.6519C32.2103 35.9206 32.7862 35.3255 33.4624 34.9228C34.1386 34.5202 34.8928 34.3235 35.6533 34.3513C35.7605 34.3593 35.8661 34.3186 35.9476 34.238C36.0291 34.1574 36.08 34.0433 36.0896 33.9199C37.2249 34.4332 38.4782 34.4839 39.6419 34.0637H39.7042C41.0753 34.7108 42.5087 34.2794 43.8798 34.3513C43.9626 36.4669 43.8582 38.5868 43.5682 40.678C41.013 40.5342 38.3955 40.8217 35.8403 40.3904C36.2142 39.5996 37.1491 39.0963 36.7751 37.946C36.8172 37.4275 36.6953 36.909 36.4318 36.4861C36.1683 36.0632 35.7811 35.7646 35.3417 35.6454C34.9663 35.4796 34.5517 35.4756 34.1739 35.6341C33.7961 35.7925 33.4805 36.1029 33.2851 36.5081C33.0422 36.9556 32.9405 37.486 32.9972 38.01C33.054 38.5339 33.2658 39.0192 33.5967 39.3839C34.0953 40.1747 34.6562 40.6061 35.5287 40.1028H35.591C35.6533 40.2466 35.7157 40.3185 35.778 40.4623C34.276 41.1093 33.2228 39.959 32.0387 39.312Z" fill="#FFB900"/>
<path d="M9.85202 18.6718C9.35344 18.9594 9.04183 18.5999 8.85487 18.1684C7.48379 15.8673 6.17503 13.4942 4.86628 11.193C4.67931 10.8335 4.67931 10.6178 5.05324 10.2582C8.79255 7.52558 12.5318 4.64913 16.2712 1.91651C16.8944 1.48505 17.3929 1.12549 17.9538 2.34798C18.8263 4.36149 20.0728 6.15927 21.0699 8.10087C21.1946 8.3166 21.6308 8.60424 21.1946 8.89189C20.7583 9.17953 20.6337 8.67615 20.509 8.46042C19.9481 7.45367 19.4496 6.44691 18.8887 5.44016C18.5147 4.72105 18.0785 4.07385 17.206 4.4334C16.9374 4.52434 16.6492 4.49876 16.3958 4.36149C15.5233 2.92327 14.7754 4.07385 14.0899 4.57722C11.971 6.08736 9.85202 7.74131 7.7954 9.25144C7.67076 9.32335 7.54611 9.32335 7.48379 9.46718C7.2345 9.75482 6.98522 13.638 7.2345 13.9976C8.10077 15.5796 8.97951 17.1617 9.85202 18.6718Z" fill="#79BC1C"/>
<path d="M34.9666 19.0977C34.4057 19.0977 34.3434 18.5224 34.2811 18.091C34.0318 16.3651 33.8448 14.6392 33.6578 12.9134C33.5332 11.9785 33.5955 10.8999 32.3491 10.9718C32.2517 10.9455 32.1612 10.8926 32.0853 10.8175C32.0094 10.7424 31.9502 10.6473 31.9128 10.5403C31.4143 9.24591 30.5417 9.31782 29.5446 9.46165L22.253 10.756H21.879C21.3805 10.8999 19.8224 13.992 19.8847 14.6392C20.0094 15.8617 20.1963 17.0842 20.321 18.3067C20.321 18.4505 20.5703 18.8101 20.134 18.7382C19.8847 18.7382 19.7601 18.7382 19.6978 18.3786C19.3862 15.9336 19.0746 13.4887 18.7629 11.1156C18.6383 10.3965 19.1992 10.4684 19.4485 10.3965C22.3776 9.89311 25.3067 9.38973 28.1735 8.95827C29.7316 8.74253 31.2896 8.59871 32.7853 8.23916C33.6578 8.02342 33.7202 8.5268 33.7825 9.174C34.2187 12.4819 34.5927 15.7898 34.9666 19.0977Z" fill="#79BC1C"/>
<path d="M4.05565 15.7925C3.39838 16.2063 2.85279 16.8213 2.47894 17.5699C2.10509 18.3185 1.91746 19.1715 1.93671 20.0352C1.87439 27.7297 1.74974 35.4242 1.68742 43.1187C1.68742 45.0603 1.68742 46.93 1.74974 48.8716C1.74974 49.2311 1.68742 49.5907 1.99903 49.8064V49.8783C1.68742 50.166 1.74974 50.5255 1.6251 50.8851C0.690275 49.5907 1.00188 48.0086 1.00188 46.5704C1.00188 38.804 1.18885 31.0376 1.25117 23.2712C1.25117 21.9768 1.18885 20.6105 1.25117 19.3161C1.27663 18.1654 1.64311 17.0595 2.28952 16.1828C2.93593 15.3061 3.82322 14.7115 4.80351 14.4981C4.95743 14.4429 5.12194 14.4408 5.2769 14.4919C5.43187 14.543 5.57056 14.6451 5.67601 14.7857C5.05279 15.1237 4.55422 15.4329 4.05565 15.7925Z" fill="#FFED97"/>
<path d="M40.0779 16.656C40.2714 16.8893 40.4797 17.1056 40.7011 17.303C41.1374 17.7344 41.6983 18.3095 41.5113 18.9566C41.3243 19.6036 40.5765 19.1004 40.0779 19.1004C39.0807 19.1722 38.0836 19.0285 37.0865 19.1004C35.7777 19.1004 36.027 17.95 35.9647 17.1592C35.84 16.0808 36.6502 16.3684 37.0865 16.4403C38.015 16.5122 39.0807 16.2965 40.0779 16.656Z" fill="#E29D03"/>
<path d="M32.0381 39.3115C33.2223 39.9586 34.344 41.1808 35.8398 40.3899H35.9021C38.4573 40.8213 41.0748 40.5337 43.63 40.6775C43.817 41.4683 43.3807 41.684 42.8198 41.684H34.8426C34.2194 41.674 33.6143 41.4401 33.1117 41.0149C32.609 40.5897 32.2338 39.9943 32.0381 39.3115Z" fill="#E29D03"/>
<path d="M41.8218 25.6493V24.283C41.9573 24.1036 42.0319 23.8737 42.0319 23.6358C42.0319 23.3978 41.9573 23.1679 41.8218 22.9886C41.7595 22.8447 41.7595 22.7728 41.6972 22.629V22.7009C41.8218 22.1975 41.9464 21.7661 42.0711 21.2627C42.4499 21.5247 42.7529 21.9106 42.9415 22.3715C43.1301 22.8323 43.1959 23.3474 43.1306 23.8515C43.0682 26.5122 42.8813 29.1729 42.6943 31.8336C42.6943 32.1932 42.6943 32.5527 42.2581 32.5527C41.6972 32.5527 41.9464 32.0494 41.8841 31.6898C41.8218 31.1145 42.1334 30.3954 41.4479 30.0358C41.5102 29.6044 41.6348 29.2448 41.6972 28.8134C42.1957 27.7347 42.632 26.7279 41.8218 25.6493Z" fill="#E29D03"/>
<path d="M19.2619 20.2535C19.1996 20.6135 18.9503 20.6854 18.701 20.6854L9.04116 20.4695C8.66253 20.4953 8.28794 20.368 7.98169 20.1095C11.741 19.9051 15.5074 19.9532 19.2619 20.2535Z" fill="#FFED97"/>
<path d="M29.9815 20.5485C29.8114 20.6862 29.6163 20.7772 29.4111 20.8147C29.2059 20.8521 28.996 20.8349 28.7974 20.7644C26.0553 20.6925 23.3131 20.6925 20.571 20.6205C20.3431 20.669 20.1091 20.6621 19.8837 20.6001C19.6583 20.5381 19.4466 20.4224 19.2622 20.2605C22.8363 20.0317 26.4205 20.1279 29.9815 20.5485Z" fill="#FFED97"/>
<path d="M41.2623 20.6901C38.0632 20.9062 34.8543 20.8339 31.6648 20.4741C31.9764 20.0421 32.475 20.1861 32.8489 20.1861C35.2171 20.1861 37.6477 20.2581 40.0159 20.3301C40.2339 20.2861 40.4575 20.2954 40.6722 20.3575C40.8868 20.4195 41.0879 20.5328 41.2623 20.6901Z" fill="#FFED97"/>
<path d="M7.42101 18.8129C6.73547 18.0939 5.92529 18.3815 5.42672 17.7345C5.23975 17.4469 4.55421 17.1593 5.05279 16.6561C5.13106 16.5343 5.23187 16.4341 5.34788 16.3629C5.4639 16.2916 5.59222 16.2511 5.72351 16.2442C5.85481 16.2373 5.98578 16.2643 6.10693 16.3231C6.22807 16.3819 6.33634 16.4711 6.42386 16.5842C6.72829 16.8413 6.97681 17.1764 7.14985 17.5631C7.32288 17.9499 7.41571 18.3777 7.42101 18.8129Z" fill="#E29D03"/>
<path d="M36.0891 33.9127C36.0795 34.036 36.0286 34.1502 35.9471 34.2308C35.8656 34.3114 35.76 34.352 35.6528 34.344C34.8906 34.3042 34.1327 34.4957 33.4547 34.8994C32.7767 35.3031 32.2023 35.9049 31.7889 36.6447C31.8512 35.2068 33.0976 33.9127 34.531 33.7689C35.0486 33.6011 35.6012 33.6521 36.0891 33.9127Z" fill="#FFED97"/>
<path d="M43.8787 34.346C42.5076 34.202 41.0742 34.634 39.7031 34.058C40.7626 33.41 43.3178 33.626 43.8787 34.346Z" fill="#FFED97"/>
<path d="M39.6419 34.0663C38.4782 34.4871 37.225 34.4363 36.0896 33.9223C37.2694 33.6821 38.4797 33.7311 39.6419 34.0663Z" fill="#FFED97"/>
<path d="M38.0833 15.1302H35.6527C36.4006 14.4094 37.2108 14.5535 38.0209 14.7698C38.0775 14.8778 38.0995 15.0053 38.0833 15.1302Z" fill="#FFED97"/>
<path d="M8.41794 28.165C8.5125 27.7974 8.71134 27.477 8.98257 27.2553C9.25379 27.0336 9.58169 26.9235 9.91366 26.9425C11.2224 27.0145 12.5312 26.9425 13.7776 27.0145C15.211 27.0864 15.8342 27.8774 15.7719 29.5313C15.7719 31.3291 15.7719 33.1988 15.7096 34.9966C15.6473 36.4348 15.0864 37.082 13.8399 37.082C12.5935 37.082 11.1601 37.082 9.85134 37.0101C8.54258 36.9382 7.98169 36.291 7.98169 34.8528C7.98169 33.055 8.04401 31.2572 8.04401 29.5313C8.06141 29.0457 8.19047 28.5741 8.41794 28.165Z" fill="#FFED97"/>
<path d="M8.66778 44.2633C8.49398 44.1908 8.33461 44.0787 8.19916 43.9336C8.06371 43.7886 7.95495 43.6136 7.87935 43.419C7.80375 43.2245 7.76287 43.0144 7.75913 42.8012C7.75539 42.5881 7.78888 42.3763 7.85759 42.1783C8.04456 41.4594 8.23153 40.6686 9.16635 40.6686C10.7867 40.6686 12.4071 40.6686 14.0274 40.5967C15.2116 40.5967 15.7101 41.2437 15.6478 42.6097C15.5855 43.9757 15.2116 44.479 13.9651 44.479C12.5317 44.479 11.0983 44.4071 9.72725 44.4071C9.37056 44.507 8.99463 44.456 8.66778 44.2633Z" fill="#FFED97"/>
<path d="M11.0363 21.6C11.0856 21.6187 11.1311 21.6484 11.1703 21.6875C11.2095 21.7266 11.2416 21.7743 11.2648 21.8278C11.288 21.8813 11.3018 21.9396 11.3053 21.9993C11.3089 22.059 11.3022 22.1189 11.2856 22.1756C11.2761 22.299 11.2251 22.4133 11.1436 22.494C11.0621 22.5746 10.9565 22.6153 10.8494 22.6073C10.1638 22.5353 9.4783 22.8951 8.85508 22.3914C8.81126 22.354 8.77565 22.3052 8.75112 22.2489C8.72659 22.1927 8.71381 22.1306 8.71381 22.0676C8.71381 22.0047 8.72659 21.9426 8.75112 21.8864C8.77565 21.8301 8.81126 21.7813 8.85508 21.7439C9.4783 21.3121 10.2262 21.6719 10.9117 21.6C10.9117 21.5496 10.974 21.6 11.0363 21.6Z" fill="#020202"/>
<path d="M27.1145 22.4043C26.6467 22.7283 26.0962 22.8554 25.5564 22.764C25.3719 22.8032 25.1817 22.7837 25.006 22.7077C24.8304 22.6316 24.676 22.5019 24.5593 22.3323C24.4969 22.2603 24.5593 22.0445 24.6216 21.9725C24.8085 21.6128 26.8652 21.6847 27.0521 22.1164C27.0554 22.2163 27.0766 22.3144 27.1145 22.4043Z" fill="#020202"/>
<path d="M31.1601 22.3178C30.8088 22.5648 30.4167 22.7244 30.0089 22.7864C29.6011 22.8483 29.1866 22.8113 28.7919 22.6776C28.7374 22.6772 28.6836 22.6634 28.6342 22.6369C28.5847 22.6105 28.5408 22.5721 28.5053 22.5243C28.4699 22.4765 28.4437 22.4205 28.4287 22.3601C28.4136 22.2996 28.4099 22.2361 28.418 22.1739C28.4387 22.0561 28.4928 21.9497 28.5719 21.8715C28.6509 21.7933 28.7503 21.7478 28.8542 21.7422C29.6083 21.9077 30.4185 21.404 31.1601 22.3178Z" fill="#020202"/>
<path d="M41.8227 25.6475C42.6322 26.7259 42.1963 27.8043 41.7604 28.8108C41.4513 28.3571 41.2885 27.7934 41.2998 27.2162C41.3112 26.6391 41.496 26.0845 41.8227 25.6475Z" fill="#020202"/>
<path d="M40.5085 44.3392C41.0689 43.4765 41.3803 43.6922 41.4425 44.6268C41.5316 45.4386 41.3538 46.2595 40.9444 46.9274C40.1412 46.2803 40.8261 45.2019 40.5085 44.3392Z" fill="#020202"/>
<path d="M10.7869 51.7977C9.85208 52.6612 8.91725 52.3014 7.9201 52.0136C8.2848 51.5639 8.78408 51.2913 9.31654 51.2512C9.84899 51.2111 10.3747 51.4065 10.7869 51.7977Z" fill="#020202"/>
<path d="M16.8943 22.554C16.645 22.554 16.645 22.3381 16.5827 22.1942C16.5204 22.0503 16.645 21.8345 16.832 21.7625C16.9497 21.7039 17.078 21.6792 17.2059 21.6906C17.8914 21.8345 18.6393 21.4027 19.2002 22.0503C19.2625 22.1223 19.2002 22.4101 19.1379 22.4101C18.4523 22.8418 17.6421 22.482 16.8943 22.554Z" fill="#020202"/>
<path d="M15.2115 22.4026C14.8999 22.6904 14.526 22.5465 14.2144 22.5465C13.8377 22.5588 13.4625 22.6069 13.0926 22.6904C13.043 22.6924 12.9936 22.6826 12.9475 22.6617C12.9013 22.6407 12.8594 22.6089 12.8243 22.5685C12.7892 22.528 12.7618 22.4796 12.7436 22.4263C12.7254 22.373 12.7169 22.3159 12.7187 22.2587C12.7006 22.2117 12.6912 22.1609 12.6909 22.1095C12.6907 22.058 12.6996 22.0071 12.7171 21.9599C12.7347 21.9126 12.7605 21.87 12.7929 21.8348C12.8253 21.7995 12.8637 21.7724 12.9056 21.755C13.6244 21.5751 14.3681 21.5751 15.0869 21.755C15.2115 21.755 15.2115 22.1148 15.2115 22.4026Z" fill="#020202"/>
<path d="M34.9667 22.272C34.3435 23.0635 33.5333 22.9196 32.7855 22.7757C32.7216 22.7804 32.6576 22.7681 32.5984 22.7397C32.5393 22.7114 32.4866 22.6677 32.4444 22.612C32.4023 22.5564 32.3717 22.4903 32.3552 22.4188C32.3387 22.3474 32.3367 22.2725 32.3492 22.2C32.4116 21.9122 32.5362 21.7683 32.7855 21.8403C33.5333 21.9122 34.275 21.5525 34.9667 22.272Z" fill="#020202"/>
<path d="M26.4922 51.3963C25.5574 52.4036 24.6226 52.2597 23.6254 51.6122C24.5603 50.7487 25.4951 50.8926 26.4922 51.3963Z" fill="#020202"/>
<path d="M22.4344 51.6102C21.4996 52.4017 20.5648 52.4736 19.6923 51.5382C20.6333 51.1785 21.5681 50.5309 22.4344 51.6102Z" fill="#020202"/>
<path d="M14.5886 51.7535C13.7784 52.6889 12.7813 52.1852 11.8464 52.1133C11.9937 51.8631 12.1861 51.6525 12.4104 51.4961C12.6347 51.3396 12.8856 51.241 13.146 51.2068C13.4064 51.1726 13.6701 51.2038 13.919 51.2982C14.168 51.3925 14.3964 51.5479 14.5886 51.7535Z" fill="#020202"/>
<path d="M20.6966 22.6248C20.6275 22.4936 20.5849 22.346 20.572 22.1931C20.572 21.9053 20.7589 21.7614 21.0082 21.7614C21.4647 21.7254 21.9228 21.7254 22.3793 21.7614C22.6909 21.8333 23.2518 21.5455 23.2518 22.1931C23.2518 22.6248 22.7532 22.6248 22.4416 22.6248C21.8604 22.6608 21.2779 22.6608 20.6966 22.6248Z" fill="#020202"/>
<path d="M5.30293 22.1233C4.929 22.1233 4.80436 21.7635 4.929 21.5477C5.55222 20.7562 6.30008 21.6196 6.98562 21.4757C7.23491 21.4757 7.42187 21.9794 7.29723 22.1233C6.67401 22.6989 5.98847 22.4111 5.30293 22.1233Z" fill="#020202"/>
<path d="M34.2752 51.1744C34.1183 51.4009 33.9235 51.5886 33.7024 51.7262C33.4813 51.8638 33.2384 51.9486 32.9883 51.9755C32.7381 52.0024 32.4859 51.9707 32.2466 51.8826C32.0073 51.7944 31.7858 51.6514 31.5954 51.4622C32.4056 50.6707 33.3466 50.8866 34.2752 51.1744Z" fill="#020202"/>
<path d="M6.79861 51.7456C6.11307 53.0408 5.24057 52.0335 4.43038 51.9615C3.93181 51.5298 4.1811 51.0981 4.61735 51.17C5.42753 51.3139 6.23148 51.0765 6.79861 51.7456Z" fill="#020202"/>
<path d="M40.7639 48.1553C41.0132 49.5932 40.4523 50.5997 39.2682 50.8154C39.5468 49.7877 40.0641 48.8678 40.7639 48.1553Z" fill="#020202"/>
<path d="M38.2084 51.2398C37.2736 52.391 36.2764 51.8154 35.2793 51.4556C35.7015 51.1077 36.1995 50.9031 36.7172 50.8649C37.2348 50.8268 37.7514 50.9566 38.2084 51.2398Z" fill="#020202"/>
<path d="M30.4176 51.4562C29.4828 52.3197 28.5479 52.0319 27.5508 51.6721C28.4856 50.4489 29.4828 51.0245 30.4176 51.4562Z" fill="#020202"/>
<path d="M18.5142 51.5371C17.704 52.6883 16.7692 52.1127 15.8344 51.8969C16.6445 50.7456 17.5794 51.0838 18.5142 51.5371Z" fill="#020202"/>
<path d="M38.5193 22.7709C37.8143 22.9388 37.0834 22.8891 36.4003 22.627C36.341 22.5994 36.291 22.5502 36.2582 22.4868C36.2254 22.4234 36.2114 22.3493 36.2185 22.2759C36.2255 22.2024 36.2532 22.1337 36.2973 22.0802C36.3414 22.0266 36.3995 21.9912 36.4626 21.9794C37.1411 21.7872 37.8521 21.8121 38.5193 22.0513C38.7685 22.1952 38.7062 22.4111 38.5193 22.7709Z" fill="#020202"/>
<path d="M41.8847 22.9881C42.0201 23.1674 42.0948 23.3973 42.0948 23.6351C42.0948 23.873 42.0201 24.1029 41.8847 24.2822C41.1368 24.0665 41.1368 22.9162 40.389 22.7005C40.202 22.6286 40.202 22.4129 40.2643 22.1973C40.2831 22.1437 40.3113 22.0953 40.3471 22.0549C40.383 22.0146 40.4257 21.9833 40.4725 21.9631C40.5194 21.9428 40.5694 21.934 40.6194 21.9372C40.6694 21.9403 40.7183 21.9555 40.7629 21.9816C41.0611 22.201 41.3736 22.3933 41.6977 22.5567V22.4848C41.7486 22.658 41.8111 22.8262 41.8847 22.9881Z" fill="#020202"/>
<path d="M1.93604 49.805C1.93604 49.4455 1.99836 49.0142 2.30997 49.0861C2.80854 49.1579 2.99551 49.7331 3.12015 50.1645C3.13954 50.2209 3.14839 50.2814 3.14612 50.342C3.14386 50.4027 3.13052 50.4621 3.10699 50.5163C3.08347 50.5706 3.05027 50.6186 3.00958 50.657C2.96889 50.6955 2.92163 50.7237 2.87087 50.7396C2.43461 50.8834 2.30997 50.452 2.12301 50.1645C2.02502 50.0594 1.94102 49.9383 1.87372 49.805C1.93604 49.8769 1.93604 49.805 1.93604 49.805Z" fill="#020202"/>
<path d="M3.80643 20.7573C3.49482 21.1168 3.18321 21.1887 2.93392 20.9011C2.68464 20.6135 2.31071 20.3259 2.55999 19.8226C2.58043 19.7692 2.6125 19.7228 2.6531 19.6879C2.69369 19.6531 2.74142 19.6309 2.79163 19.6237C2.84184 19.6165 2.89282 19.6244 2.9396 19.6466C2.98638 19.6689 3.02737 19.7047 3.05857 19.7507C3.32559 20.0681 3.57536 20.4043 3.80643 20.7573Z" fill="#020202"/>
<path d="M33.6526 39.3111C33.3086 38.9558 33.0876 38.469 33.0303 37.9405C32.9731 37.412 33.0834 36.8774 33.341 36.4354C33.5364 36.0301 33.852 35.7198 34.2298 35.5613C34.6076 35.4028 35.0222 35.4069 35.3976 35.5726C35.8371 35.6919 36.2242 35.9905 36.4877 36.4133C36.7512 36.8362 36.8731 37.3548 36.831 37.8732C36.5478 38.6445 36.1467 39.3507 35.6469 39.9582H35.5846C34.9232 39.819 34.2758 39.6022 33.6526 39.3111Z" fill="black"/>
<path d="M35.5911 40.0244C36.098 39.4234 36.5 38.7155 36.7752 37.9395C37.0868 39.0898 36.2143 39.593 35.8404 40.3839H35.7781C35.7158 40.2401 35.6534 40.1682 35.5911 40.0244Z" fill="#FFED97"/>
<path d="M33.6519 39.3115C34.2751 39.5274 34.8983 39.8152 35.5838 40.0311C34.6552 40.6067 34.0943 40.175 33.6519 39.3115Z" fill="#FFED97"/>
<path d="M41.8842 22.9775C41.8219 22.8337 41.8219 22.7619 41.7596 22.6182C41.7842 22.7448 41.8263 22.8662 41.8842 22.9775Z" fill="#E67E23"/>
</svg>
