<svg width="42" height="30" viewBox="0 0 42 30" fill="none" xmlns="http://www.w3.org/2000/svg">
<path d="M21.0052 27.4218C19.1733 28.3172 17.115 28.8214 14.9332 28.8214C7.30711 28.8214 1.11157 22.6362 1.11157 14.9998C1.11157 7.36347 7.30711 1.17822 14.9332 1.17822C17.115 1.17822 19.1733 1.68251 21.0052 2.57788C16.4152 4.82145 13.2454 9.54529 13.2454 14.9998C13.2454 20.4544 16.4152 25.1782 21.0052 27.4218Z" stroke="#EF931D" stroke-width="2.35678" stroke-miterlimit="10"/>
<path d="M40.8886 14.9998C40.8886 22.6362 34.7033 28.8214 27.067 28.8214C24.8954 28.8214 22.8371 28.3172 21.0052 27.4218C16.4152 25.1782 13.2454 20.4647 13.2454 14.9998C13.2454 9.535 16.4152 4.82145 21.0052 2.57788C22.8371 1.68251 24.8954 1.17822 27.067 1.17822C34.7033 1.17822 40.8886 7.37376 40.8886 14.9998Z" stroke="#EF931D" stroke-width="2.35678" stroke-miterlimit="10"/>
<path d="M31.8115 21.1235C31.1116 21.5146 29.9178 21.9056 28.6005 21.9056C26.5833 21.9056 24.7411 21.0823 23.5885 19.5592C23.0327 18.8593 22.6211 17.9742 22.4358 16.8833H21.0979V15.4219H22.23V15.072C22.23 14.8662 22.2506 14.6604 22.2506 14.4545H21.0979V12.9931H22.477C22.7446 11.8816 23.2386 10.9348 23.8972 10.1732C25.0705 8.85589 26.7171 8.07373 28.6416 8.07373C29.8972 8.07373 30.9881 8.3619 31.7291 8.69123L31.1528 11.0377C30.6176 10.8113 29.7737 10.5437 28.8681 10.5437C27.8801 10.5437 26.9744 10.873 26.3363 11.6552C26.0482 11.9845 25.8217 12.458 25.6777 12.9931H30.7926V14.4545H25.3689C25.3483 14.6604 25.3483 14.8868 25.3483 15.0926V15.4219H30.7926V16.8833H25.6365C25.7806 17.5008 26.007 17.9742 26.3157 18.3242C26.9744 19.0652 27.9418 19.3739 28.971 19.3739C29.9178 19.3739 30.8852 19.0652 31.3175 18.8387L31.8115 21.1235Z" fill="#EF931D"/>
</svg>
